<svg id="Layer_1" data-name="Layer 1" xmlns="http://www.w3.org/2000/svg" viewBox="0 0 259.3 238.42"><defs><style>.cls-1,.cls-4,.cls-6{fill:#0073ff;}.cls-2,.cls-3{fill:#fff;}.cls-3,.cls-9{stroke:#000;}.cls-10,.cls-3,.cls-4,.cls-6,.cls-7,.cls-8,.cls-9{stroke-miterlimit:10;}.cls-3,.cls-7{stroke-width:0.75px;}.cls-4,.cls-6,.cls-7,.cls-8{stroke:#fff;}.cls-4{stroke-width:0.42px;}.cls-5{fill:#231f20;}.cls-6{stroke-width:0.41px;}.cls-10,.cls-7,.cls-8,.cls-9{fill:none;}.cls-8{stroke-width:0.49px;}.cls-9{stroke-width:0.77px;}.cls-10{stroke:#0073ff;stroke-width:3.24px;}</style></defs><title>Loopie_Illustrations</title><rect class="cls-1" x="93.85" y="57.09" width="69.66" height="136.85"/><rect class="cls-2" x="98.33" y="57.66" width="60.7" height="132.72"/><rect x="104.22" y="106.21" width="3.16" height="4.19"/><path class="cls-3" d="M205.18,198.5l-3.38,0H55.23s-2.75.07-3-.24,2.61-1,2.61-1l36.78-7.94H167l35.22,8.2S205.6,198.36,205.18,198.5Z"/><rect class="cls-1" x="51.83" y="198.12" width="153.7" height="7.94"/><rect x="104.26" y="113" width="3.08" height="14.2" rx="1.54"/><path class="cls-1" d="M72,131.13a11.27,11.27,0,0,1,1.58-2.88c1.82-3,1.88-6.72,1.83-10.22a7,7,0,0,0-.61-3.39A3.8,3.8,0,0,0,70.41,113a4.51,4.51,0,0,0-2.75,3.35,8.17,8.17,0,0,0,.43,4.42c.48,1.42,1.17,2.77,1.72,4.17a22.54,22.54,0,0,1,1.5,6.3"/><path class="cls-1" d="M72.56,133.61a19.45,19.45,0,0,1,5.8-4.32,11.67,11.67,0,0,1,6.76-1.14,6.3,6.3,0,0,1,2.32.77,6,6,0,0,1,2.6,5,5.33,5.33,0,0,1-.3,2,4.91,4.91,0,0,1-2.95,2.73,9.92,9.92,0,0,1-4,.41,22,22,0,0,1-10.37-3.49"/><path class="cls-1" d="M70.29,134a24.56,24.56,0,0,0-6-.43,17,17,0,0,1-6-.77,6.52,6.52,0,0,1-4.13-4.14,3.75,3.75,0,0,1,.66-3.46,4.32,4.32,0,0,1,2.81-1.23,8.34,8.34,0,0,1,6.2,2c2.26,2,3.44,5.07,6,6.56"/><path class="cls-1" d="M70.29,139c0-.24-.27-.36-.5-.41a58.73,58.73,0,0,0-9.12-1.21,10.25,10.25,0,0,0-5.17.94A4.61,4.61,0,0,0,53,142.63,6.94,6.94,0,0,0,54,145.22a4.82,4.82,0,0,0,1.08,1.37,4.29,4.29,0,0,0,1.46.66,9.44,9.44,0,0,0,4.64.43A11.56,11.56,0,0,0,64.82,146l5-3.08"/><path class="cls-1" d="M72.52,144.61a29,29,0,0,1,10.62-1.76c1.85,0,3.93.08,5.17,1.53a4.32,4.32,0,0,1,.37,4.67,5.52,5.52,0,0,1-3.82,2.72,8.9,8.9,0,0,1-4.7-.49,30.74,30.74,0,0,1-4.33-2.08A13.28,13.28,0,0,1,72.57,147"/><path class="cls-1" d="M70,150.3a14.81,14.81,0,0,1-3.26-.06c-1.53-.21-3.1-.65-4.59-.25a4,4,0,0,0-2.75,2.54,1.53,1.53,0,0,0-.08.87,1.71,1.71,0,0,0,.92.93,5.21,5.21,0,0,0,2.45.62,10.54,10.54,0,0,0,3-.57l4.59-1.33"/><path class="cls-1" d="M72.66,154.79a63.14,63.14,0,0,1,7.23-1c.93-.07,2,0,2.54.69a1.63,1.63,0,0,1-.37,2,4.49,4.49,0,0,1-2.07,1,6.8,6.8,0,0,1-2.49.27,7.77,7.77,0,0,1-1.82-.54c-1-.41-2-.86-3-1.35"/><path class="cls-4" d="M70.92,115.24a61.79,61.79,0,0,1,.82,16"/><path class="cls-4" d="M73,134.61s8.52,1.29,12.61-.55"/><path class="cls-4" d="M72.83,145.86s9.68.75,12.27,1.71"/><path class="cls-4" d="M73,155.34a58.4,58.4,0,0,0,6.82.27"/><path class="cls-4" d="M69.35,151.73a46.32,46.32,0,0,0-6.48.88"/><path class="cls-4" d="M69.42,140.81s-10.09,1.3-12.14,2.19"/><path class="cls-4" d="M57.49,127.86s4,4.16,12.13,5.25"/><path class="cls-1" d="M71.52,183.38c-.6-6.59-1.2-27-1.8-33.61a41.36,41.36,0,0,1-.22-7.46c.11-1.22.33-2.42.44-3.64a24.73,24.73,0,0,0,0-4.47,8.53,8.53,0,0,1,0-2.42,2.54,2.54,0,0,1,1.37-1.91,1.56,1.56,0,0,1,2,.77,2.36,2.36,0,0,1,0,1.18,69.16,69.16,0,0,0-.52,12.79c.06,2.86.12,5.73.19,8.59,0,2,.08,3.89.25,5.84.31,3.48,1,20.76,2.18,24.08"/><polygon class="cls-5" points="76.7 196.61 68.76 196.61 65.19 170.11 80.27 170.11 76.7 196.61"/><path class="cls-6" d="M180.28,179.48H137.39a10.3,10.3,0,0,1-10.27-10.27v-2c0-5.64,5-11,32-11,24.94,0,31.4,5.4,31.4,11v2A10.3,10.3,0,0,1,180.28,179.48Z"/><path class="cls-4" d="M186.22,194.34H132.79c-4.94,0-6.55-7.85-6.32-14.75.11-3.47.55-14.82.55-14.82s22.26-3.25,63.42,0c.11,0,.45,3.26.89,17.22C191.55,189.12,189.37,194.34,186.22,194.34Z"/><path class="cls-7" d="M150.62,166.25c-.3,4.56,4.38,6.36,6.34,6.36h3.79c2,0,6.44-1.56,6.44-6.51l-2.72-.09s-.6,4.05-3.73,4.05H157c-3.13,0-3.64-3.9-3.64-3.9Z"/><path class="cls-8" d="M136.25,172.77a99.71,99.71,0,0,0,1.2,20.56"/><path class="cls-8" d="M136.58,166.41a32.55,32.55,0,0,1-.28,4.77"/><path class="cls-8" d="M181.12,183.47c.29,7.34-1.32,9.86-1.32,9.86"/><path class="cls-8" d="M180.66,166.41c.17,4.62.41,15.47.41,15.47"/><line class="cls-9" x1="128.11" y1="55.48" x2="128.11" y2="35.86"/><line class="cls-9" x1="143.23" y1="37.72" x2="128.21" y2="55.17"/><line class="cls-9" x1="157.9" y1="46.04" x2="128.53" y2="55.27"/><line class="cls-9" x1="112.97" y1="37.86" x2="128.23" y2="55.17"/><line class="cls-9" x1="101.34" y1="44.45" x2="127.92" y2="55.27"/><path class="cls-1" d="M135.75,55.88c0,.1-15.1,0-15.1,0a7.33,7.33,0,0,1,7.55-7.54A7.55,7.55,0,0,1,135.75,55.88Z"/><path class="cls-10" d="M161.58,55.54H95.79s3.33-19.86,32.9-19.86S161.58,55.54,161.58,55.54Z"/><rect class="cls-1" x="113.38" y="65.74" width="8.02" height="16.28"/><rect class="cls-1" x="124.09" y="65.74" width="8.02" height="16.28"/><rect class="cls-1" x="134.8" y="65.74" width="8.02" height="16.28"/><rect class="cls-1" x="113.38" y="84.8" width="8.02" height="16.28"/><rect class="cls-1" x="124.09" y="84.8" width="8.02" height="16.28"/><rect class="cls-1" x="134.8" y="84.8" width="8.02" height="16.28"/></svg>